<svg width="366" height="68" viewBox="0 0 366 68" fill="none" xmlns="http://www.w3.org/2000/svg">
<g clip-path="url(#clip0_1106_3101)">
<path d="M218.582 52.3774V47.5899C216.262 51.3535 212.849 53.2344 208.345 53.2344C205.426 53.2344 202.745 52.3998 200.297 50.734C197.849 49.0681 195.954 46.738 194.61 43.7488C193.266 40.7596 192.594 37.3247 192.594 33.4406C192.594 29.5565 193.202 26.218 194.421 23.1324C195.638 20.0485 197.466 17.684 199.901 16.0405C202.337 14.3971 205.06 13.5745 208.07 13.5745C210.276 13.5745 212.241 14.0563 213.965 15.0218C215.689 15.9872 217.09 17.2435 218.17 18.7905V0H224.339V52.3774H218.582ZM198.968 33.4423C198.968 38.3021 199.956 41.9333 201.932 44.3391C203.909 46.7449 206.24 47.9478 208.928 47.9478C211.617 47.9478 213.943 46.7982 215.839 44.4991C217.735 42.2 218.682 38.6928 218.682 33.9775C218.682 28.7856 217.718 24.9737 215.787 22.5438C213.857 20.1139 211.479 18.899 208.651 18.899C205.824 18.899 203.59 20.0657 201.741 22.401C199.891 24.7363 198.966 28.4156 198.966 33.4406L198.968 33.4423Z" fill="#B0B0B0" fill-opacity="0.9"/>
<path d="M253.907 40.159L260.317 40.9798C259.306 44.8622 257.432 47.8755 254.699 50.0197C251.964 52.164 248.471 53.2361 244.22 53.2361C238.865 53.2361 234.621 51.5272 231.483 48.1095C228.346 44.6918 226.778 39.8974 226.778 33.7297C226.778 27.5619 228.363 22.3923 231.535 18.8662C234.707 15.3418 238.819 13.5779 243.874 13.5779C248.93 13.5779 252.767 15.3057 255.87 18.7578C258.973 22.2117 260.523 27.0715 260.523 33.3356C260.523 33.7176 260.511 34.289 260.489 35.0513H233.19C233.419 39.2193 234.557 42.4116 236.603 44.6264C238.648 46.8412 241.198 47.9495 244.254 47.9495C246.528 47.9495 248.471 47.33 250.08 46.0909C251.689 44.8519 252.963 42.8745 253.907 40.1607V40.159ZM233.534 29.7613H253.974C253.699 26.569 252.916 24.1752 251.631 22.5799C249.654 20.1035 247.092 18.8645 243.945 18.8645C241.095 18.8645 238.7 19.854 236.757 21.8296C234.815 23.8069 233.742 26.4502 233.534 29.7613Z" fill="#B0B0B0" fill-opacity="0.9"/>
<path d="M261.042 41.0521L267.177 40.0523C267.521 42.6009 268.48 44.5541 270.054 45.9119C271.627 47.2697 273.829 47.9478 276.656 47.9478C279.482 47.9478 281.618 47.3472 282.997 46.1443C284.376 44.9414 285.065 43.5302 285.065 41.9108C285.065 40.4584 284.457 39.3157 283.238 38.4811C282.387 37.9097 280.274 37.1835 276.896 36.3024C272.346 35.1115 269.193 34.0824 267.435 33.2117C265.676 32.3426 264.344 31.1397 263.436 29.6029C262.528 28.0662 262.075 26.3694 262.075 24.5108C262.075 22.8191 262.448 21.2531 263.195 19.8127C263.942 18.3723 264.959 17.1746 266.247 16.2212C267.211 15.4829 268.528 14.8582 270.194 14.3454C271.859 13.8343 273.646 13.5779 275.554 13.5779C278.426 13.5779 280.948 14.0064 283.119 14.8634C285.29 15.7204 286.894 16.882 287.927 18.3465C288.961 19.811 289.674 21.7711 290.064 24.2234L283.998 25.0804C283.723 23.1272 282.923 21.6025 281.601 20.508C280.279 19.4135 278.412 18.8645 276.001 18.8645C273.15 18.8645 271.117 19.3532 269.9 20.329C268.681 21.3065 268.072 22.4491 268.072 23.7587C268.072 24.5934 268.325 25.3437 268.831 26.0097C269.336 26.7015 270.128 27.2728 271.208 27.7254C271.829 27.9646 273.656 28.5119 276.688 29.3689C281.077 30.5839 284.139 31.5785 285.875 32.3529C287.609 33.1273 288.971 34.2528 289.959 35.7294C290.948 37.2059 291.441 39.0404 291.441 41.2311C291.441 43.4218 290.838 45.3939 289.631 47.2869C288.424 49.1799 286.685 50.6461 284.408 51.6821C282.134 52.7181 279.559 53.2361 276.687 53.2361C271.93 53.2361 268.304 52.2122 265.812 50.1643C263.318 48.1164 261.727 45.079 261.038 41.0538L261.042 41.0521Z" fill="#B0B0B0" fill-opacity="0.9"/>
<path d="M293.267 7.39644V0H299.471V7.39644H293.267ZM293.267 52.3774V14.4349H299.471V52.3792H293.267V52.3774Z" fill="#B0B0B0" fill-opacity="0.9"/>
<path d="M302.842 55.5212L308.875 56.4505C309.127 58.3797 309.827 59.7856 310.977 60.6667C312.516 61.8576 314.62 62.453 317.284 62.453C320.157 62.453 322.374 61.8576 323.937 60.6667C325.499 59.4759 326.557 57.8083 327.108 55.6641C327.43 54.3545 327.58 51.6027 327.557 47.4106C324.846 50.7216 321.468 52.3771 317.423 52.3771C312.392 52.3771 308.496 50.4962 305.739 46.7326C302.982 42.969 301.603 38.455 301.603 33.1908C301.603 29.57 302.236 26.2297 303.499 23.1682C304.763 20.1085 306.595 17.744 308.997 16.0764C311.398 14.4088 314.219 13.5759 317.459 13.5759C321.779 13.5759 325.341 15.3863 328.145 19.0071V14.4347H333.866V47.2334C333.866 53.1395 333.285 57.3265 332.126 59.7925C330.966 62.2586 329.127 64.2049 326.612 65.635C324.095 67.0633 320.999 67.7792 317.322 67.7792C312.956 67.7792 309.428 66.7604 306.74 64.7246C304.051 62.6888 302.753 59.6204 302.844 55.5247L302.842 55.5212ZM307.977 32.7279C307.977 37.7064 308.931 41.3393 310.838 43.6246C312.744 45.9117 315.135 47.0544 318.008 47.0544C320.88 47.0544 323.248 45.9169 325.178 43.6418C327.108 41.3668 328.073 37.7994 328.073 32.9413C328.073 28.0831 327.079 24.7945 325.092 22.4369C323.105 20.0792 320.708 18.9004 317.905 18.9004C315.101 18.9004 312.803 20.062 310.872 22.3835C308.942 24.7067 307.977 28.1537 307.977 32.7261V32.7279Z" fill="#B0B0B0" fill-opacity="0.9"/>
<path d="M336.254 52.3774V14.4349H341.838V19.8299C344.526 15.6619 348.41 13.5779 353.488 13.5779C355.693 13.5779 357.722 13.9892 359.571 14.81C361.421 15.6326 362.805 16.7099 363.725 18.0436C364.643 19.3773 365.287 20.9623 365.655 22.795C365.884 23.9859 365.999 26.0699 365.999 29.0471V52.3774H359.795V29.2966C359.795 26.6774 359.554 24.7173 359.071 23.4197C358.588 22.1222 357.732 21.0862 356.503 20.3118C355.274 19.5374 353.832 19.1502 352.178 19.1502C349.536 19.1502 347.255 20.0192 345.336 21.7591C343.418 23.4972 342.458 26.7961 342.458 31.656V52.3791H336.254V52.3774Z" fill="#B0B0B0" fill-opacity="0.9"/>
<path d="M0 66.919V14.4349H5.85335V19.3653C7.23374 17.4361 8.79119 15.9889 10.5291 15.0252C12.2654 14.0597 14.3712 13.5779 16.8466 13.5779C20.0819 13.5779 22.9372 14.4125 25.4126 16.0784C27.8863 17.7459 29.7549 20.0984 31.0167 23.1341C32.2768 26.1715 32.9077 29.4997 32.9077 33.1205C32.9077 37.0028 32.2114 40.498 30.819 43.6059C29.4266 46.7139 27.405 49.0973 24.7525 50.7511C22.1 52.4066 19.31 53.2344 16.3825 53.2344C14.2406 53.2344 12.3187 52.7818 10.6185 51.8766C8.91668 50.9714 7.5191 49.8287 6.42407 48.4468V66.919H0ZM5.81725 33.6212C5.81725 38.5052 6.80398 42.1122 8.77916 44.4474C10.7543 46.7827 13.1455 47.9495 15.9527 47.9495C18.7599 47.9495 21.2525 46.7414 23.2879 44.3235C25.3215 41.9057 26.3392 38.161 26.3392 33.0878C26.3392 28.0145 25.3456 24.633 23.3584 22.2254C21.3712 19.8196 18.9989 18.6167 16.2381 18.6167C13.4773 18.6167 11.081 19.897 8.97513 22.4577C6.8693 25.0184 5.81725 28.7408 5.81725 33.623V33.6212Z" fill="#5AC5C9"/>
<path d="M63.2764 47.6982C60.8972 49.7237 58.6057 51.1521 56.4054 51.985C54.205 52.8179 51.843 53.2361 49.3212 53.2361C45.1577 53.2361 41.9568 52.2173 39.7203 50.1815C37.4838 48.1457 36.3647 45.5437 36.3647 42.3755C36.3647 40.5169 36.7876 38.8201 37.6317 37.2833C38.4757 35.7466 39.5828 34.5144 40.9512 33.5851C42.3195 32.6558 43.8598 31.9537 45.5737 31.477C46.8337 31.1431 48.7384 30.8231 51.2843 30.5116C56.4707 29.892 60.2904 29.1538 62.74 28.2968C62.7641 27.4157 62.7761 26.8564 62.7761 26.6172C62.7761 23.998 62.1693 22.1514 60.9557 21.0793C59.314 19.6269 56.8747 18.9006 53.6394 18.9006C50.6173 18.9006 48.386 19.4307 46.9472 20.4908C45.5066 21.5508 44.4425 23.4266 43.7532 26.1181L37.4718 25.2611C38.0425 22.5696 38.9829 20.3961 40.291 18.7406C41.5992 17.0851 43.4902 15.8116 45.9656 14.9185C48.4393 14.0253 51.3067 13.5779 54.5677 13.5779C57.8287 13.5779 60.4331 13.9582 62.4547 14.7206C64.4763 15.4829 65.965 16.4415 66.9156 17.5962C67.8662 18.7509 68.5332 20.2102 68.9149 21.9724C69.1297 23.0687 69.2363 25.046 69.2363 27.9027V36.4779C69.2363 42.4564 69.3721 46.2372 69.6472 47.8221C69.9205 49.4071 70.462 50.9249 71.2717 52.3774H64.5622C63.8952 51.0437 63.4672 49.4828 63.2781 47.6965L63.2764 47.6982ZM62.7418 33.3339C60.409 34.2872 56.9125 35.0978 52.2487 35.7638C49.6083 36.1458 47.7397 36.5743 46.6446 37.0493C45.5496 37.526 44.7056 38.2229 44.1108 39.1402C43.516 40.0574 43.2186 41.0762 43.2186 42.1948C43.2186 43.9088 43.8667 45.3389 45.1645 46.4816C46.4607 47.6242 48.3585 48.1973 50.8563 48.1973C53.3541 48.1973 55.5321 47.6552 57.4591 46.571C59.3862 45.4869 60.801 44.0052 61.7069 42.1225C62.3962 40.6701 62.7418 38.5258 62.7418 35.6915V33.3339Z" fill="#5AC5C9"/>
<path d="M89.9092 46.6261L90.8374 52.3068C89.029 52.6871 87.4114 52.8781 85.9829 52.8781C83.6501 52.8781 81.8434 52.5081 80.5576 51.7698C79.2734 51.0316 78.3675 50.061 77.8449 48.8581C77.3206 47.6552 77.0593 45.1237 77.0593 41.2654V19.4358H72.3491V14.4331H77.0593V1.17871H83.4473V14.4348H89.9074V19.4375H83.4473V41.6251C83.4473 43.4596 83.5607 44.6384 83.7859 45.1616C84.0111 45.6864 84.3807 46.1029 84.893 46.4127C85.4035 46.7224 86.1359 46.8773 87.0882 46.8773C87.8016 46.8773 88.7419 46.7947 89.9074 46.6278L89.9092 46.6261Z" fill="#5AC5C9"/>
<path d="M90.832 33.4059C90.832 26.3795 92.7831 21.1754 96.6854 17.7921C99.9447 14.9819 103.917 13.5759 108.605 13.5759C113.816 13.5759 118.075 15.2848 121.383 18.7025C124.69 22.1202 126.344 26.8424 126.344 32.869C126.344 37.7529 125.612 41.5922 124.149 44.3922C122.686 47.1921 120.556 49.3638 117.761 50.9127C114.964 52.4615 111.913 53.2359 108.607 53.2359C103.3 53.2359 99.0112 51.5339 95.7416 48.1265C92.4703 44.7208 90.8338 39.8145 90.8338 33.4059H90.832ZM97.4349 33.4059C97.4349 38.2657 98.4938 41.9037 100.612 44.3216C102.73 46.7395 105.394 47.9475 108.605 47.9475C111.816 47.9475 114.447 46.7326 116.564 44.3027C118.682 41.8727 119.741 38.1694 119.741 33.1908C119.741 28.4979 118.675 24.9442 116.547 22.5263C114.417 20.1085 111.77 18.9004 108.605 18.9004C105.44 18.9004 102.728 20.1033 100.612 22.5091C98.4938 24.915 97.4349 28.5478 97.4349 33.4059Z" fill="#5AC5C9"/>
<path d="M132.996 46.041L138.608 42.8969C139.826 45.1633 141.435 46.6502 143.434 47.3575C145.433 48.0648 147.805 47.9099 150.551 46.8946C153.296 45.8792 155.163 44.5455 156.084 42.9227C157.007 41.2999 157.188 39.727 156.626 38.2075C156.122 36.8445 155.135 35.9909 153.664 35.6467C152.639 35.4161 150.336 35.4953 146.75 35.8825C141.919 36.4005 138.498 36.5692 136.491 36.385C134.483 36.2026 132.771 35.5521 131.357 34.4387C129.943 33.3235 128.915 31.8952 128.272 30.1536C127.686 28.567 127.505 26.9648 127.732 25.3437C127.957 23.7243 128.531 22.2357 129.451 20.8797C130.134 19.8402 131.194 18.7819 132.635 17.7012C134.075 16.6222 135.722 15.7393 137.574 15.0544C140.364 14.0219 142.961 13.5176 145.368 13.54C147.774 13.5641 149.732 14.0769 151.243 15.0785C152.754 16.0801 154.126 17.6633 155.355 19.823L149.762 22.8088C148.818 21.0759 147.513 19.9332 145.851 19.3808C144.188 18.8284 142.186 18.985 139.841 19.8523C137.073 20.8762 135.268 22.0654 134.424 23.4197C133.58 24.7741 133.384 26.0648 133.838 27.2935C134.127 28.0765 134.632 28.6891 135.354 29.1314C136.085 29.5978 137.053 29.849 138.258 29.8852C138.944 29.8852 140.907 29.7423 144.149 29.4567C148.832 29.0178 152.151 28.8509 154.104 28.9524C156.057 29.0557 157.769 29.6219 159.24 30.651C160.712 31.6818 161.828 33.2237 162.586 35.2785C163.328 37.2885 163.442 39.4 162.926 41.6097C162.41 43.8193 161.228 45.819 159.376 47.6087C157.527 49.3985 155.206 50.8096 152.416 51.8422C147.797 53.5527 143.92 53.8952 140.79 52.8696C137.658 51.8456 135.062 49.5689 132.997 46.041H132.996Z" fill="#5AC5C9"/>
<path d="M178.141 30.8289C180.895 30.8289 183.128 28.5938 183.128 25.8366C183.128 23.0794 180.895 20.8442 178.141 20.8442C175.387 20.8442 173.154 23.0794 173.154 25.8366C173.154 28.5938 175.387 30.8289 178.141 30.8289Z" fill="#5AC5C9"/>
<path d="M177.871 45.722C180.625 45.722 182.858 43.4868 182.858 40.7296C182.858 37.9725 180.625 35.7373 177.871 35.7373C175.117 35.7373 172.884 37.9725 172.884 40.7296C172.884 43.4868 175.117 45.722 177.871 45.722Z" fill="#FF7278"/>
</g>
<defs>
<clipPath id="clip0_1106_3101">
<rect width="366" height="67.7778" fill="white"/>
</clipPath>
</defs>
</svg>
