<?xml version="1.0" encoding="UTF-8"?>
<svg id="Layer_1" data-name="Layer 1" xmlns="http://www.w3.org/2000/svg" xmlns:xlink="http://www.w3.org/1999/xlink" viewBox="0 0 400 68.5">
  <defs>
    <style>
      .cls-1 {
        fill: #5ac5c9;
      }

      .cls-1, .cls-2, .cls-3, .cls-4 {
        stroke-width: 0px;
      }

      .cls-2 {
        fill: none;
      }

      .cls-5 {
        clip-path: url(#clippath);
      }

      .cls-3 {
        fill: rgba(176, 176, 176, .9);
      }

      .cls-4 {
        fill: #ff7278;
      }
    </style>
    <clipPath id="clippath">
      <rect class="cls-2" x="19.68" y="1" width="372.32" height="66.83"/>
    </clipPath>
  </defs>
  <g class="cls-5">
    <g>
      <path class="cls-3" d="M235.7,52.64v-4.72c-2.29,3.71-5.65,5.57-10.09,5.57-2.88,0-5.52-.82-7.94-2.47-2.41-1.64-4.28-3.94-5.61-6.89-1.33-2.95-1.99-6.33-1.99-10.16s.6-7.12,1.8-10.16c1.2-3.04,3-5.37,5.4-6.99,2.4-1.62,5.09-2.43,8.05-2.43,2.17,0,4.11.48,5.81,1.43,1.7.95,3.08,2.19,4.15,3.72V1h6.08v51.64h-5.68ZM216.36,33.97c0,4.79.97,8.37,2.92,10.74,1.95,2.37,4.25,3.56,6.9,3.56s4.94-1.13,6.81-3.4c1.87-2.27,2.8-5.73,2.8-10.37,0-5.12-.95-8.88-2.85-11.27-1.9-2.4-4.25-3.59-7.04-3.59s-4.99,1.15-6.81,3.45c-1.82,2.3-2.74,5.93-2.74,10.88h0Z"/>
      <path class="cls-3" d="M270.53,40.6l6.32.81c-1,3.83-2.84,6.8-5.54,8.91-2.7,2.11-6.14,3.17-10.33,3.17-5.28,0-9.46-1.69-12.56-5.05-3.09-3.37-4.64-8.1-4.64-14.18s1.56-11.18,4.69-14.66c3.13-3.47,7.18-5.21,12.17-5.21s8.77,1.7,11.83,5.11c3.06,3.41,4.59,8.2,4.59,14.37,0,.38-.01.94-.03,1.69h-26.92c.23,4.11,1.35,7.26,3.36,9.44,2.02,2.18,4.53,3.28,7.54,3.28,2.24,0,4.16-.61,5.74-1.83s2.84-3.17,3.77-5.85h0ZM250.44,30.34h20.15c-.27-3.15-1.04-5.51-2.31-7.08-1.95-2.44-4.47-3.66-7.58-3.66-2.81,0-5.17.98-7.09,2.92-1.92,1.95-2.97,4.56-3.18,7.82Z"/>
      <path class="cls-3" d="M277.56,41.48l6.05-.99c.34,2.51,1.28,4.44,2.84,5.78,1.55,1.34,3.72,2.01,6.51,2.01s4.89-.59,6.25-1.78c1.36-1.19,2.04-2.58,2.04-4.17,0-1.43-.6-2.56-1.8-3.38-.84-.56-2.92-1.28-6.25-2.15-4.49-1.17-7.6-2.19-9.33-3.05-1.73-.86-3.05-2.04-3.94-3.56-.9-1.52-1.34-3.19-1.34-5.02,0-1.67.37-3.21,1.11-4.63.74-1.42,1.74-2.6,3.01-3.54.95-.73,2.25-1.34,3.89-1.85,1.64-.5,3.4-.76,5.28-.76,2.83,0,5.32.42,7.46,1.27,2.14.85,3.72,1.99,4.74,3.43,1.02,1.44,1.72,3.38,2.11,5.79l-5.98.85c-.27-1.93-1.06-3.43-2.36-4.51-1.3-1.08-3.14-1.62-5.52-1.62-2.81,0-4.82.48-6.02,1.44-1.2.96-1.8,2.09-1.8,3.38,0,.82.25,1.56.75,2.22.5.68,1.28,1.25,2.34,1.69.61.24,2.41.78,5.4,1.62,4.33,1.2,7.35,2.18,9.06,2.94,1.71.76,3.05,1.87,4.03,3.33.97,1.46,1.46,3.26,1.46,5.42s-.59,4.1-1.78,5.97c-1.19,1.87-2.91,3.31-5.15,4.33-2.24,1.02-4.78,1.53-7.61,1.53-4.69,0-8.26-1.01-10.72-3.03-2.46-2.02-4.03-5.01-4.71-8.98h0Z"/>
      <path class="cls-3" d="M309.33,8.29V1h6.12v7.29h-6.12ZM309.33,52.64V15.23h6.12v37.41h-6.12Z"/>
      <path class="cls-3" d="M318.78,55.74l5.95.92c.25,1.9.94,3.29,2.07,4.16,1.52,1.17,3.59,1.76,6.22,1.76,2.83,0,5.02-.59,6.56-1.76,1.54-1.17,2.58-2.82,3.13-4.93.32-1.29.47-4,.44-8.14-2.67,3.26-6.01,4.9-9.99,4.9-4.96,0-8.8-1.85-11.52-5.57-2.72-3.71-4.08-8.16-4.08-13.35,0-3.57.62-6.86,1.87-9.88,1.24-3.02,3.05-5.35,5.42-6.99,2.37-1.64,5.15-2.47,8.34-2.47,4.26,0,7.77,1.79,10.54,5.36v-4.51h5.64v32.34c0,5.82-.57,9.95-1.72,12.38-1.15,2.43-2.96,4.35-5.44,5.76-2.48,1.41-5.53,2.11-9.16,2.11-4.31,0-7.78-1-10.44-3.01-2.65-2.01-3.93-5.03-3.84-9.07h0ZM323.84,33.27c0,4.91.94,8.49,2.82,10.74,1.88,2.26,4.24,3.38,7.07,3.38s5.16-1.12,7.07-3.36,2.86-5.76,2.86-10.55-.98-8.03-2.94-10.36c-1.96-2.32-4.32-3.49-7.09-3.49s-5.03,1.15-6.93,3.43c-1.9,2.29-2.85,5.69-2.85,10.2h0Z"/>
      <path class="cls-3" d="M351.72,52.64V15.23h5.5v5.32c2.65-4.11,6.48-6.16,11.49-6.16,2.17,0,4.18.41,6,1.21,1.82.81,3.19,1.87,4.1,3.19.9,1.32,1.54,2.88,1.9,4.68.22,1.17.34,3.23.34,6.16v23h-6.12v-22.76c0-2.58-.24-4.52-.71-5.79-.48-1.28-1.32-2.3-2.53-3.06-1.21-.76-2.63-1.15-4.27-1.15-2.6,0-4.85.86-6.75,2.57-1.89,1.71-2.84,4.97-2.84,9.76v20.43h-6.12Z"/>
      <path class="cls-1" d="M19.68,66.98V15.23h5.77v4.86c1.36-1.9,2.9-3.33,4.61-4.28,1.71-.95,3.79-1.43,6.23-1.43,3.19,0,6.01.82,8.45,2.47,2.44,1.64,4.28,3.96,5.53,6.96,1.24,2.99,1.86,6.28,1.86,9.85,0,3.83-.69,7.27-2.06,10.34-1.37,3.06-3.37,5.41-5.98,7.05-2.62,1.63-5.37,2.45-8.25,2.45-2.11,0-4.01-.45-5.68-1.34-1.68-.89-3.06-2.02-4.14-3.38v18.21h-6.33ZM25.41,34.15c0,4.82.97,8.37,2.92,10.67,1.95,2.3,4.31,3.45,7.07,3.45s5.23-1.19,7.23-3.57c2.01-2.38,3.01-6.08,3.01-11.08s-.98-8.34-2.94-10.71c-1.96-2.37-4.3-3.56-7.02-3.56s-5.08,1.26-7.16,3.79c-2.08,2.52-3.11,6.19-3.11,11.01h0Z"/>
      <path class="cls-1" d="M82.07,48.03c-2.35,2-4.61,3.41-6.77,4.23-2.17.82-4.5,1.23-6.98,1.23-4.11,0-7.26-1-9.47-3.01-2.2-2.01-3.31-4.57-3.31-7.7,0-1.83.42-3.51,1.25-5.02.83-1.51,1.92-2.73,3.27-3.65,1.35-.92,2.87-1.61,4.56-2.08,1.24-.33,3.12-.64,5.63-.95,5.11-.61,8.88-1.34,11.3-2.18.02-.87.04-1.42.04-1.66,0-2.58-.6-4.4-1.79-5.46-1.62-1.43-4.02-2.15-7.21-2.15-2.98,0-5.18.52-6.6,1.57-1.42,1.05-2.47,2.89-3.15,5.55l-6.19-.84c.56-2.65,1.49-4.8,2.78-6.43,1.29-1.63,3.15-2.89,5.59-3.77,2.44-.88,5.27-1.32,8.48-1.32s5.78.37,7.78,1.13c1.99.75,3.46,1.7,4.4,2.84.94,1.14,1.59,2.58,1.97,4.31.21,1.08.32,3.03.32,5.85v8.46c0,5.89.13,9.62.41,11.18.27,1.56.8,3.06,1.6,4.49h-6.62c-.66-1.32-1.08-2.85-1.27-4.62h0ZM81.54,33.87c-2.3.94-5.75,1.74-10.35,2.4-2.6.38-4.45.8-5.53,1.27-1.08.47-1.91,1.16-2.5,2.06-.59.9-.88,1.91-.88,3.01,0,1.69.64,3.1,1.92,4.23,1.28,1.13,3.15,1.69,5.61,1.69s4.61-.53,6.51-1.6c1.9-1.07,3.29-2.53,4.19-4.39.68-1.43,1.02-3.55,1.02-6.34v-2.32Z"/>
      <path class="cls-1" d="M108.32,46.97l.92,5.6c-1.78.38-3.38.56-4.79.56-2.3,0-4.08-.36-5.35-1.09-1.27-.73-2.16-1.68-2.67-2.87-.52-1.19-.77-3.68-.77-7.49v-21.52h-4.64v-4.93h4.64V2.16h6.3v13.07h6.37v4.93h-6.37v21.88c0,1.81.11,2.97.33,3.49.22.52.59.93,1.09,1.23.5.31,1.23.46,2.16.46.7,0,1.63-.08,2.78-.25h0Z"/>
      <path class="cls-1" d="M109.23,33.94c0-6.93,1.92-12.06,5.77-15.39,3.21-2.77,7.13-4.16,11.75-4.16,5.14,0,9.34,1.68,12.6,5.05,3.26,3.37,4.89,8.03,4.89,13.97,0,4.82-.72,8.6-2.16,11.36-1.44,2.76-3.54,4.9-6.3,6.43-2.76,1.53-5.77,2.29-9.03,2.29-5.23,0-9.46-1.68-12.68-5.04-3.23-3.36-4.84-8.2-4.84-14.51h0ZM115.74,33.94c0,4.79,1.04,8.38,3.13,10.76,2.09,2.38,4.72,3.57,7.88,3.57s5.76-1.2,7.85-3.59c2.09-2.4,3.13-6.05,3.13-10.96,0-4.63-1.05-8.13-3.15-10.51-2.1-2.38-4.71-3.58-7.83-3.58s-5.79,1.19-7.88,3.56c-2.09,2.37-3.13,5.95-3.13,10.74Z"/>
      <path class="cls-1" d="M150.81,46.4l5.53-3.1c1.2,2.23,2.79,3.7,4.76,4.4,1.97.7,4.31.54,7.02-.46,2.71-1,4.55-2.32,5.46-3.92.91-1.6,1.09-3.15.53-4.65-.5-1.34-1.47-2.19-2.92-2.52-1.01-.23-3.28-.15-6.82.23-4.76.51-8.14.68-10.12.5-1.98-.18-3.67-.82-5.06-1.92-1.39-1.1-2.41-2.51-3.04-4.23-.58-1.56-.76-3.14-.53-4.74.22-1.6.79-3.06,1.7-4.4.67-1.02,1.72-2.07,3.14-3.13,1.42-1.06,3.04-1.93,4.87-2.61,2.75-1.02,5.31-1.52,7.68-1.49,2.37.02,4.3.53,5.79,1.52,1.49.99,2.84,2.55,4.05,4.68l-5.52,2.94c-.93-1.71-2.22-2.84-3.86-3.38-1.64-.54-3.61-.39-5.93.46-2.73,1.01-4.51,2.18-5.34,3.52-.83,1.34-1.03,2.61-.58,3.82.28.77.78,1.38,1.49,1.81.72.46,1.67.71,2.86.74.68,0,2.61-.14,5.81-.42,4.62-.43,7.89-.6,9.82-.5,1.93.1,3.61.66,5.06,1.67,1.45,1.02,2.55,2.54,3.3,4.56.73,1.98.84,4.06.34,6.24-.51,2.18-1.67,4.15-3.5,5.92-1.82,1.76-4.11,3.16-6.86,4.17-4.55,1.69-8.38,2.02-11.46,1.01-3.09-1.01-5.65-3.25-7.68-6.73h0Z"/>
      <path class="cls-1" d="M195.48,31.4c2.72,0,4.92-2.2,4.92-4.92s-2.2-4.92-4.92-4.92-4.92,2.2-4.92,4.92,2.2,4.92,4.92,4.92Z"/>
      <path class="cls-4" d="M195.22,46.08c2.72,0,4.92-2.2,4.92-4.92s-2.2-4.92-4.92-4.92-4.92,2.2-4.92,4.92,2.2,4.92,4.92,4.92Z"/>
    </g>
  </g>
</svg>