<svg width="274" height="51" viewBox="0 0 274 51" fill="none" xmlns="http://www.w3.org/2000/svg">
<g clip-path="url(#clip0_1106_3989)">
<path d="M163.638 39.4119V35.8094C161.9 38.6414 159.346 40.0567 155.974 40.0567C153.789 40.0567 151.781 39.4287 149.948 38.1752C148.116 36.9217 146.698 35.1684 145.691 32.9192C144.685 30.6699 144.182 28.0853 144.182 25.1627C144.182 22.2401 144.637 19.7279 145.55 17.4062C146.461 15.0857 147.829 13.3065 149.652 12.0698C151.476 10.8332 153.514 10.2142 155.768 10.2142C157.419 10.2142 158.89 10.5768 160.181 11.3033C161.472 12.0297 162.52 12.975 163.329 14.1391V0H167.947V39.4119H163.638ZM148.954 25.164C148.954 28.8208 149.694 31.5531 151.172 33.3633C152.652 35.1736 154.397 36.0788 156.41 36.0788C158.423 36.0788 160.164 35.2138 161.584 33.4838C163.003 31.7538 163.712 29.1147 163.712 25.5667C163.712 21.6599 162.99 18.7917 161.545 16.9633C160.1 15.1349 158.32 14.2207 156.203 14.2207C154.086 14.2207 152.414 15.0986 151.029 16.8558C149.645 18.613 148.952 21.3815 148.952 25.1627L148.954 25.164Z" fill="#3EC3C8"/>
<path d="M190.083 30.2178L194.882 30.8355C194.125 33.7568 192.722 36.0242 190.676 37.6377C188.629 39.2511 186.014 40.0579 182.831 40.0579C178.822 40.0579 175.645 38.772 173.296 36.2003C170.947 33.6286 169.774 30.021 169.774 25.3801C169.774 20.7391 170.96 16.8492 173.335 14.1959C175.709 11.544 178.787 10.2167 182.572 10.2167C186.357 10.2167 189.23 11.5168 191.552 14.1144C193.875 16.7132 195.036 20.3701 195.036 25.0835C195.036 25.371 195.027 25.8009 195.01 26.3746H174.574C174.745 29.5108 175.597 31.9129 177.129 33.5794C178.66 35.246 180.568 36.0799 182.857 36.0799C184.559 36.0799 186.014 35.6137 187.218 34.6814C188.423 33.7491 189.376 32.2612 190.083 30.2191V30.2178ZM174.831 22.394H190.133C189.927 19.9919 189.342 18.1907 188.379 16.9903C186.899 15.127 184.981 14.1946 182.625 14.1946C180.491 14.1946 178.699 14.9392 177.244 16.4258C175.79 17.9136 174.987 19.9026 174.831 22.394Z" fill="#3EC3C8"/>
<path d="M195.425 30.8899L200.018 30.1376C200.275 32.0553 200.993 33.525 202.172 34.5467C203.35 35.5684 204.998 36.0786 207.114 36.0786C209.23 36.0786 210.829 35.6267 211.861 34.7215C212.894 33.8164 213.41 32.7546 213.41 31.5361C213.41 30.4432 212.954 29.5833 212.042 28.9553C211.405 28.5254 209.823 27.9789 207.294 27.316C203.888 26.4199 201.527 25.6455 200.211 24.9903C198.894 24.3364 197.897 23.4312 197.217 22.2749C196.538 21.1185 196.198 19.8417 196.198 18.4432C196.198 17.1703 196.477 15.992 197.037 14.9081C197.596 13.8243 198.358 12.923 199.322 12.2057C200.044 11.6501 201.029 11.1801 202.276 10.7942C203.523 10.4096 204.86 10.2167 206.289 10.2167C208.439 10.2167 210.327 10.5391 211.953 11.184C213.578 11.8288 214.779 12.7029 215.552 13.8049C216.326 14.9068 216.86 16.3817 217.152 18.227L212.61 18.8718C212.405 17.4021 211.806 16.2548 210.816 15.4313C209.827 14.6077 208.429 14.1946 206.624 14.1946C204.49 14.1946 202.967 14.5624 202.056 15.2966C201.144 16.0321 200.688 16.8919 200.688 17.8774C200.688 18.5054 200.877 19.07 201.256 19.5711C201.634 20.0917 202.227 20.5216 203.036 20.8621C203.5 21.0421 204.868 21.4539 207.138 22.0988C210.424 23.013 212.716 23.7614 214.016 24.3441C215.314 24.9268 216.334 25.7737 217.074 26.8847C217.813 27.9958 218.183 29.3762 218.183 31.0246C218.183 32.673 217.731 34.157 216.828 35.5814C215.924 37.0058 214.622 38.109 212.918 38.8886C211.215 39.6681 209.288 40.0579 207.137 40.0579C203.576 40.0579 200.862 39.2874 198.996 37.7464C197.129 36.2055 195.938 33.92 195.422 30.8912L195.425 30.8899Z" fill="#3EC3C8"/>
<path d="M219.548 5.56552V0H224.193V5.56552H219.548ZM219.548 39.4119V10.8617H224.193V39.4132H219.548V39.4119Z" fill="#3EC3C8"/>
<path d="M226.718 41.7773L231.234 42.4766C231.423 43.9282 231.947 44.9861 232.808 45.6491C233.96 46.5452 235.535 46.9932 237.529 46.9932C239.68 46.9932 241.34 46.5452 242.51 45.6491C243.68 44.753 244.471 43.4983 244.884 41.8848C245.125 40.8994 245.237 38.8288 245.22 35.6744C243.191 38.1658 240.662 39.4115 237.634 39.4115C233.867 39.4115 230.951 37.9962 228.886 35.1642C226.822 32.3323 225.79 28.9357 225.79 24.9746C225.79 22.2501 226.264 19.7367 227.21 17.433C228.155 15.1307 229.527 13.3515 231.325 12.0967C233.123 10.8419 235.235 10.2152 237.661 10.2152C240.895 10.2152 243.561 11.5775 245.66 14.3019V10.8614H249.943V35.541C249.943 39.9852 249.508 43.1357 248.641 44.9913C247.772 46.8469 246.395 48.3114 244.512 49.3875C242.628 50.4623 240.311 51.001 237.558 51.001C234.289 51.001 231.648 50.2344 229.635 48.7025C227.623 47.1706 226.651 44.8618 226.719 41.7799L226.718 41.7773ZM230.562 24.6263C230.562 28.3724 231.276 31.106 232.703 32.8256C234.131 34.5466 235.921 35.4064 238.071 35.4064C240.222 35.4064 241.994 34.5504 243.439 32.8386C244.884 31.1267 245.606 28.4424 245.606 24.7868C245.606 21.1313 244.862 18.6567 243.375 16.8827C241.887 15.1087 240.093 14.2217 237.994 14.2217C235.895 14.2217 234.174 15.0957 232.729 16.8426C231.284 18.5907 230.562 21.1844 230.562 24.625V24.6263Z" fill="#3EC3C8"/>
<path d="M251.731 39.4117V10.8615H255.911V14.9211C257.923 11.7848 260.831 10.2167 264.632 10.2167C266.283 10.2167 267.802 10.5262 269.187 11.1438C270.571 11.7628 271.607 12.5734 272.296 13.577C272.983 14.5805 273.466 15.7731 273.741 17.1522C273.912 18.0483 273.999 19.6164 273.999 21.8566V39.4117H269.354V22.0444C269.354 20.0735 269.174 18.5986 268.812 17.6223C268.451 16.6459 267.81 15.8664 266.89 15.2837C265.969 14.7009 264.89 14.4096 263.652 14.4096C261.674 14.4096 259.966 15.0635 258.53 16.3727C257.093 17.6805 256.375 20.1629 256.375 23.8197V39.413H251.731V39.4117Z" fill="#3EC3C8"/>
<path d="M0 50.3547V10.8625H4.38201V14.5725C5.41542 13.1209 6.58138 12.0318 7.88248 11.3067C9.18228 10.5803 10.7588 10.2177 12.612 10.2177C15.034 10.2177 17.1716 10.8457 19.0248 12.0992C20.8767 13.354 22.2756 15.1241 23.2202 17.4083C24.1635 19.6938 24.6358 22.1982 24.6358 24.9227C24.6358 27.844 24.1146 30.4739 23.0722 32.8125C22.0297 35.1512 20.5163 36.9446 18.5306 38.189C16.5448 39.4347 14.4561 40.0576 12.2645 40.0576C10.661 40.0576 9.22217 39.717 7.9494 39.0359C6.67533 38.3548 5.62905 37.4949 4.80928 36.4551V50.3547H0ZM4.35499 25.2995C4.35499 28.9744 5.09369 31.6886 6.57238 33.4458C8.05106 35.203 9.84119 36.0809 11.9428 36.0809C14.0443 36.0809 15.9104 35.1719 17.4341 33.3525C18.9565 31.5332 19.7184 28.7155 19.7184 24.8981C19.7184 21.0807 18.9746 18.5362 17.4869 16.7246C15.9992 14.9143 14.2232 14.0092 12.1564 14.0092C10.0896 14.0092 8.29558 14.9726 6.71909 16.8994C5.14259 18.8262 4.35499 21.6271 4.35499 25.3008V25.2995Z" fill="#3EC3C8"/>
<path d="M47.3708 35.8919C45.5897 37.416 43.8742 38.4907 42.227 39.1175C40.5797 39.7442 38.8114 40.0589 36.9235 40.0589C33.8065 40.0589 31.4103 39.2923 29.736 37.7604C28.0617 36.2285 27.2239 34.2706 27.2239 31.8867C27.2239 30.4882 27.5405 29.2114 28.1723 28.0551C28.8042 26.8987 29.633 25.9715 30.6574 25.2723C31.6818 24.573 32.8349 24.0447 34.118 23.686C35.0613 23.4348 36.4872 23.194 38.3932 22.9596C42.2759 22.4934 45.1354 21.9379 46.9693 21.293C46.9873 20.63 46.9963 20.2092 46.9963 20.0292C46.9963 18.0584 46.5421 16.6689 45.6335 15.8622C44.4045 14.7693 42.5783 14.2228 40.1563 14.2228C37.8939 14.2228 36.2234 14.6217 35.1462 15.4193C34.0678 16.217 33.2712 17.6284 32.7551 19.6537L28.0527 19.0088C28.4799 16.9836 29.1839 15.3481 30.1632 14.1024C31.1426 12.8567 32.5582 11.8985 34.4114 11.2264C36.2633 10.5544 38.4099 10.2177 40.8512 10.2177C43.2925 10.2177 45.2423 10.5039 46.7557 11.0775C48.2691 11.6511 49.3836 12.3724 50.0953 13.2413C50.807 14.1102 51.3063 15.2083 51.592 16.5342C51.7529 17.3591 51.8326 18.847 51.8326 20.9965V27.449C51.8326 31.9476 51.9343 34.7925 52.1402 35.9851C52.3448 37.1777 52.7502 38.3198 53.3564 39.4127H48.3335C47.8341 38.4092 47.5137 37.2347 47.3721 35.8906L47.3708 35.8919ZM46.9706 25.0832C45.2242 25.8006 42.6066 26.4105 39.1152 26.9117C37.1384 27.1991 35.7395 27.5216 34.9197 27.8789C34.1 28.2376 33.4681 28.7621 33.0228 29.4523C32.5775 30.1425 32.3549 30.909 32.3549 31.7507C32.3549 33.0405 32.8401 34.1165 33.8117 34.9763C34.782 35.8362 36.2028 36.2674 38.0727 36.2674C39.9427 36.2674 41.5732 35.8595 43.0159 35.0437C44.4585 34.2279 45.5177 33.113 46.1959 31.6963C46.7119 30.6034 46.9706 28.99 46.9706 26.8573V25.0832Z" fill="#3EC3C8"/>
<path d="M67.3094 35.0844L68.0043 39.3589C66.6505 39.6451 65.4395 39.7888 64.37 39.7888C62.6236 39.7888 61.2711 39.5104 60.3084 38.9549C59.3471 38.3994 58.6689 37.6691 58.2777 36.7639C57.8851 35.8588 57.6895 33.954 57.6895 31.0508V14.6249H54.1633V10.8606H57.6895V0.887177H62.4718V10.8619H67.3081V14.6262H62.4718V31.3214C62.4718 32.7018 62.5567 33.5888 62.7253 33.9825C62.8939 34.3774 63.1706 34.6908 63.5541 34.9239C63.9363 35.157 64.4845 35.2735 65.1975 35.2735C65.7316 35.2735 66.4355 35.2113 67.3081 35.0857L67.3094 35.0844Z" fill="#3EC3C8"/>
<path d="M68.0002 25.1363C68.0002 19.8492 69.4609 15.9334 72.3823 13.3876C74.8223 11.273 77.7964 10.2151 81.3059 10.2151C85.2066 10.2151 88.3956 11.5009 90.8716 14.0726C93.3477 16.6443 94.5857 20.1975 94.5857 24.7323C94.5857 28.4072 94.0375 31.2962 92.9423 33.403C91.8471 35.5098 90.2526 37.144 88.1601 38.3094C86.0662 39.4748 83.7819 40.0575 81.3071 40.0575C77.3344 40.0575 74.1235 38.7769 71.6757 36.213C69.2267 33.6503 68.0015 29.9585 68.0015 25.1363H68.0002ZM72.9434 25.1363C72.9434 28.7931 73.7361 31.5306 75.3216 33.3499C76.9071 35.1693 78.9019 36.0783 81.3059 36.0783C83.7099 36.0783 85.6789 35.1641 87.2644 33.3357C88.8499 31.5073 89.6426 28.7206 89.6426 24.9744C89.6426 21.4432 88.8447 18.7692 87.2515 16.9499C85.657 15.1305 83.6751 14.2215 81.3059 14.2215C78.9366 14.2215 76.9058 15.1266 75.3216 16.9369C73.7361 18.7472 72.9434 21.4808 72.9434 25.1363Z" fill="#3EC3C8"/>
<path d="M99.5648 34.6438L103.767 32.278C104.678 33.9833 105.882 35.1021 107.379 35.6344C108.876 36.1666 110.652 36.05 112.707 35.286C114.762 34.522 116.16 33.5185 116.85 32.2974C117.541 31.0763 117.676 29.8927 117.255 28.7493C116.878 27.7238 116.139 27.0815 115.038 26.8225C114.271 26.649 112.546 26.7085 109.862 26.9999C106.245 27.3897 103.684 27.5166 102.181 27.378C100.678 27.2408 99.3962 26.7513 98.3384 25.9135C97.2792 25.0744 96.5096 23.9996 96.0283 22.6892C95.5895 21.4952 95.4543 20.2897 95.6242 19.0699C95.7928 17.8514 96.2226 16.7313 96.9111 15.7109C97.4221 14.9288 98.2161 14.1324 99.2946 13.3192C100.373 12.5073 101.606 11.843 102.992 11.3276C105.081 10.5507 107.025 10.1713 108.827 10.1881C110.629 10.2062 112.094 10.5921 113.226 11.3457C114.357 12.0994 115.384 13.2907 116.304 14.9158L112.116 17.1625C111.41 15.8585 110.433 14.9987 109.189 14.583C107.944 14.1674 106.445 14.2852 104.689 14.9378C102.617 15.7083 101.266 16.6031 100.634 17.6222C100.002 18.6413 99.8557 19.6124 100.195 20.537C100.412 21.1262 100.79 21.5872 101.33 21.92C101.877 22.2709 102.602 22.46 103.504 22.4871C104.018 22.4871 105.487 22.3797 107.914 22.1647C111.42 21.8345 113.905 21.7089 115.367 21.7853C116.829 21.863 118.111 22.289 119.212 23.0634C120.314 23.839 121.149 24.9993 121.717 26.5454C122.273 28.0578 122.358 29.6467 121.972 31.3094C121.586 32.972 120.7 34.4767 119.314 35.8234C117.929 37.1701 116.192 38.2319 114.103 39.0089C110.645 40.296 107.743 40.5537 105.4 39.782C103.055 39.0115 101.112 37.2983 99.5661 34.6438H99.5648Z" fill="#3EC3C8"/>
<path d="M132.958 23.1661C135.02 23.1661 136.692 21.4843 136.692 19.4096C136.692 17.3349 135.02 15.6531 132.958 15.6531C130.897 15.6531 129.225 17.3349 129.225 19.4096C129.225 21.4843 130.897 23.1661 132.958 23.1661Z" fill="#3EC3C8"/>
<path d="M132.958 33.0209C135.02 33.0209 136.692 31.3391 136.692 29.2644C136.692 27.1897 135.02 25.5079 132.958 25.5079C130.897 25.5079 129.225 27.1897 129.225 29.2644C129.225 31.3391 130.897 33.0209 132.958 33.0209Z" fill="#3EC3C8"/>
</g>
<defs>
<clipPath id="clip0_1106_3989">
<rect width="274" height="51" fill="white"/>
</clipPath>
</defs>
</svg>
