<?xml version="1.0" encoding="UTF-8"?>
<svg id="Layer_1" data-name="Layer 1" xmlns="http://www.w3.org/2000/svg" viewBox="0 0 85 85">
  <defs>
    <style>
      .cls-1 {
        fill: none;
        stroke: #321351;
        stroke-linecap: round;
        stroke-width: 3px;
      }
    </style>
  </defs>
  <path class="cls-1" d="M58.3,33.38c-1.92-4.37-2.43-12.88-13.57-15.23-6.46-3.02-15.44,2.59-19.19,6.47-12.83,13.26-13,33.04,12.83,41.56,13.06,1.17,13.05-2.07,18.37-4.03,4.4-3.14,10.76-8.51,11.17-14.2.7-9.84-3.21-18.78-10.15-25.58"/>
  <path class="cls-1" d="M35.92,36.81c-1.22,1.01-2.56.18-1.21-1.02,1.05-.93,1.67.22,1.67,1.11,0,1.08-1.05.71-1.72.53-.57-.15-.51-1.73-.13-1.9"/>
  <path class="cls-1" d="M49.51,36.24c-.26.04-.93.48-1.18.64-.11.07.32-1.06.41-1.2.27-.45.65-.16.85.26,2.97.3-1.98,3.49-.77.3"/>
  <path class="cls-1" d="M28.72,42.58c.7,2.63,1.63,5.5,3.65,7.48,1.6,1.57,3.56,2.75,5.67,3.52,4.08,1.49,9.2,1.65,12.94-.85,1.16-.77,2.2-1.63,3.11-2.67.63-.73.81-1.63,1.15-2.5.37-.95.54-1.93.83-2.91.17-.59.33-1.25.33-1.87"/>
</svg>