<?xml version="1.0" encoding="UTF-8"?>
<svg id="Layer_1" data-name="Layer 1" xmlns="http://www.w3.org/2000/svg" viewBox="0 0 85 64">
  <defs>
    <style>
      .cls-1 {
        fill: none;
        stroke: #321351;
        stroke-linecap: round;
        stroke-width: 3px;
      }
    </style>
  </defs>
  <path class="cls-1" d="M60.58,22.5c-2.26-5.15-2.86-15.17-15.98-17.95-7.61-3.56-18.19,3.05-22.61,7.62-15.11,15.62-15.31,38.92,15.12,48.96,15.39,1.38,15.37-2.44,21.64-4.75,5.18-3.69,12.68-10.02,13.16-16.73.83-11.6-3.78-22.12-11.96-30.14"/>
  <path class="cls-1" d="M34.21,26.54c-1.44,1.19-3.02.22-1.42-1.2,1.24-1.09,1.97.26,1.97,1.31,0,1.27-1.24.83-2.03.63-.67-.18-.6-2.04-.15-2.24"/>
  <path class="cls-1" d="M50.22,25.86c-.31.04-1.09.57-1.39.76-.13.08.38-1.25.48-1.41.32-.53.77-.19,1,.3,3.5.35-2.33,4.11-.91.35"/>
  <path class="cls-1" d="M25.73,33.33c.83,3.09,1.92,6.48,4.3,8.81,1.88,1.85,4.19,3.24,6.68,4.15,4.81,1.75,10.84,1.94,15.25-1,1.36-.91,2.59-1.92,3.66-3.15.75-.85.96-1.92,1.36-2.95.44-1.12.63-2.28.97-3.42.21-.69.38-1.48.38-2.2"/>
</svg>