<svg width="386" height="567" viewBox="0 0 386 567" fill="none" xmlns="http://www.w3.org/2000/svg">
<path d="M369.619 514.499C373.923 491.128 383.285 468.417 382.284 444.32C379.634 380.54 344.16 323.411 295.901 283.123C270.084 261.571 239.956 242.668 208.199 231.253C169.682 217.407 124.805 222.79 86.4827 234.598C39.0485 249.213 4.08699 313.143 3.64564 376.558C3.08002 457.827 40.3601 505.145 93.8647 541.812C113.104 554.996 137.117 570.883 186.559 560.089C237.168 549.04 257.939 531.118 277.904 502.468C331.361 425.757 262.328 317.399 188.715 286.088C152.294 270.597 121.357 276.731 92.1764 303.145C68.5748 324.51 59.3407 353.375 73.7532 387.019C100.697 449.916 175.379 450.34 204.163 394.75C227.943 348.825 227.974 294.754 226.329 244.431C224.423 186.112 214.48 128.15 189.726 74.7719C171.682 35.8606 154.215 13.3594 115.303 6.43791C91.3572 2.1784 56.3326 -0.528447 33.4242 32.345" stroke="#DD7F22" stroke-width="6" stroke-linecap="round"/>
</svg>
