<svg width="905" height="963" viewBox="0 0 905 963" fill="none" xmlns="http://www.w3.org/2000/svg">
<path d="M900 5C714.757 592.39 263.609 574.731 265.043 567.314C270.545 538.871 306.214 542.704 326.458 548.282C352.905 555.57 401.509 568.119 418.9 591.951C441.656 623.135 376.157 670.274 356.074 682.707C337.427 694.251 298.418 712.585 280.93 688.896C265.69 668.25 260.849 626.208 268.371 602.406C278.571 570.135 302.272 549.094 335.8 545.695C375.318 541.689 399.97 565.074 419.382 597.217C468.014 730.552 348.986 713.983 301.362 697.707C205.898 681.124 239.806 598.118 285.119 567.648C349.617 524.277 581.326 633.54 504.706 837.098C489.16 894.399 199.485 1178.88 -34.0181 599.218" stroke="#7F1865" stroke-width="10" stroke-linecap="round"/>
</svg>
