<svg width="402" height="624" viewBox="0 0 402 624" fill="none" xmlns="http://www.w3.org/2000/svg">
<path d="M178.561 428.931C249.485 305.873 381.557 414.401 390.026 428.272C422.506 481.466 359.947 527.795 319.504 548.691C266.668 575.99 170.792 627.5 108.423 615.255C26.8116 599.231 63.0775 428.236 77.1284 379.011C90.1747 333.304 125.907 246.911 188.225 258.788C242.536 269.139 311.274 328.705 333.79 377.507C364.318 443.675 356.975 511.868 308.33 566.52C250.995 630.936 177.669 630.068 100.012 607.611C-39.8127 567.177 43.074 318.992 142.793 274.833C254.771 225.246 385.658 342.338 357.463 457.239C317.329 620.789 44.3178 614.023 10.2448 448.369C-15.7849 321.819 31.7191 178.814 102.621 74.765C126.631 39.5309 164.553 -18.2844 211.624 11.3873" stroke="#FF7278" stroke-width="5" stroke-linecap="round"/>
</svg>
