<svg width="561" height="530" viewBox="0 0 561 530" fill="none" xmlns="http://www.w3.org/2000/svg">
<path d="M557 297.5C412.5 -131 134.945 58.4836 98.7392 75.1261C21.8377 136.384 51.3304 256.519 99.4131 328.061C156.414 412.873 263.908 393.011 338.331 340.462C366.402 320.642 403.884 291.172 401.315 252.758C399.5 225.62 335.525 152.455 320.709 139.778C261.782 89.3586 215.265 60.445 168.022 77.5721C146.954 85.2098 141.117 102.588 135.064 116.09C109.235 173.715 121.252 235.116 171.673 277.759C209.752 309.963 251.61 295.676 296.373 302.126C314.394 304.722 350.256 296.552 364.474 284.996C398.337 257.475 393.312 227.472 386.95 188.017C378.287 134.295 369.483 73.5843 330.007 32.5426C291.164 -7.84003 247.543 3.94115 198.383 17.1135C136.904 33.5866 67.1737 48.2468 29.3779 105.64C-80.2763 272.152 195.342 505.156 332.58 341.258C397.195 264.09 287.839 176.735 218.047 168.411C130.454 157.964 -23.0326 357.371 141.439 525.187" stroke="#321351" stroke-width="8" stroke-linecap="round"/>
</svg>
