<svg width="564" height="389" viewBox="0 0 564 389" fill="none" xmlns="http://www.w3.org/2000/svg">
<path d="M62.18 375.44C85.714 378.738 108.805 387.119 132.837 385.087C196.445 379.707 252.002 341.818 290.185 291.876C310.611 265.16 328.206 234.25 338.25 202.033C350.433 162.958 343.132 118.354 329.694 80.5719C313.059 33.8074 247.69 1.61694 184.315 3.89281C103.096 6.80945 57.4185 46.0825 23.0783 101.109C10.7305 120.895 -4.11354 145.567 8.78861 194.501C21.9955 244.59 40.7911 264.574 70.2704 283.294C149.202 333.415 254.502 259.803 282.631 184.916C296.548 147.865 289.094 117.219 261.453 89.1972C239.097 66.5325 209.862 58.5436 176.867 74.3842C115.183 103.998 117.958 178.629 174.731 205.006C221.632 226.796 275.655 224.511 325.861 220.711C384.045 216.308 441.527 203.891 493.796 176.873C531.899 157.178 553.631 138.764 558.879 99.5914C562.109 75.4846 563.312 40.3763 529.488 18.8972" stroke="#FFEA8A" stroke-width="6" stroke-linecap="round"/>
</svg>
