<svg width="541" height="451" viewBox="0 0 541 451" fill="none" xmlns="http://www.w3.org/2000/svg">
<path d="M434.001 3.5333C410.289 5.10249 385.975 1.60556 362.862 8.49534C301.687 26.7313 255.022 75.1518 227.823 131.829C213.273 162.149 202.351 195.997 199.086 229.585C195.126 270.323 211.367 312.502 232.227 346.75C258.046 389.141 328.606 407.327 390.186 392.178C469.104 372.763 505.815 325.002 528.214 264.13C536.269 242.242 545.771 215.062 523.163 169.786C500.02 123.441 477.545 107.709 444.868 95.3934C357.376 62.4181 269.296 155.954 257.027 235.002C250.957 274.113 264.502 302.595 297.275 324.393C323.783 342.023 354.032 343.884 383.105 321.649C437.456 280.08 419.523 207.583 358.564 193.335C308.206 181.565 255.783 194.817 207.406 208.773C151.342 224.947 97.5994 248.823 51.937 285.93C18.6504 312.98 1.12907 335.438 3.97798 374.858C5.7312 399.117 11.7108 433.733 49.2043 447.865" stroke="#9F99D1" stroke-width="6" stroke-linecap="round"/>
</svg>
