<svg width="903" height="959" viewBox="0 0 903 959" fill="none" xmlns="http://www.w3.org/2000/svg">
<path d="M900 3C714.757 590.39 263.609 572.731 265.043 565.314C270.545 536.871 306.214 540.704 326.458 546.282C352.905 553.57 401.509 566.119 418.9 589.951C441.656 621.135 376.157 668.274 356.074 680.707C337.427 692.251 298.418 710.585 280.93 686.896C265.69 666.25 260.849 624.208 268.371 600.406C278.571 568.135 302.272 547.094 335.8 543.695C375.318 539.689 399.97 563.074 419.382 595.217C468.014 728.553 348.986 711.983 301.362 695.707C205.898 679.124 239.806 596.118 285.119 565.648C349.617 522.277 581.326 631.54 504.706 835.098C489.16 892.399 199.485 1176.88 -34.0181 597.218" stroke="#7F1865" stroke-width="6" stroke-linecap="round"/>
</svg>
