<svg width="383" height="568" viewBox="0 0 383 568" fill="none" xmlns="http://www.w3.org/2000/svg">
<path d="M18.2751 45.5024C13.2164 68.7217 3.12289 91.1171 3.34274 115.234C3.92462 179.066 37.5288 237.315 84.4573 279.145C109.562 301.523 139.062 321.392 170.432 333.83C208.48 348.917 253.507 344.991 292.193 334.431C340.076 321.361 377.09 258.597 379.587 195.23C382.785 114.022 347.058 65.5204 294.77 27.1397C275.968 13.339 252.483 -3.31817 202.717 5.86787C151.776 15.2709 130.435 32.5106 109.552 60.4989C53.6375 135.438 119.123 245.975 191.683 279.655C227.583 296.319 258.702 291.191 288.723 265.735C313.005 245.147 323.169 216.596 309.855 182.503C284.963 118.766 210.335 115.921 179.763 170.55C154.508 215.68 152.725 269.722 152.738 320.072C152.754 378.422 160.814 436.675 183.824 490.828C200.599 530.303 217.327 553.359 255.994 561.537C279.789 566.571 314.708 570.411 338.669 538.297" stroke="#50B5AA" stroke-width="6" stroke-linecap="round"/>
</svg>
